<mxfile host="app.diagrams.net" modified="2024-04-29T08:15:22.549Z" agent="Mozilla/5.0 (Windows NT 10.0; Win64; x64) AppleWebKit/537.36 (KHTML, like Gecko) Chrome/124.0.0.0 Safari/537.36 Edg/124.0.0.0" version="21.6.7" etag="gwJyi1wu887GDzFhvgDU" type="github">
  <diagram name="Page-1" id="Kt2IoMc39Ee3_0rg-kP5">
    <mxGraphModel>
      <root>
        <mxCell id="0" />
        <mxCell id="1" parent="0" />
      </root>
    </mxGraphModel>
  </diagram>
</mxfile>
